<svg width="26" height="26" viewBox="0 0 26 26" fill="none" xmlns="http://www.w3.org/2000/svg">
<path fill-rule="evenodd" clip-rule="evenodd" d="M13 2.43392C7.01454 2.43392 2.16663 7.28183 2.16663 13.2673C2.16663 18.061 5.26767 22.11 9.57392 23.5454C10.1156 23.6402 10.3187 23.3152 10.3187 23.0308C10.3187 22.7735 10.3052 21.9204 10.3052 21.0131C7.58329 21.5141 6.87913 20.3495 6.66246 19.7402C6.54058 19.4287 6.01246 18.4673 5.55204 18.21C5.17288 18.0068 4.63121 17.5058 5.5385 17.4923C6.39163 17.4787 7.001 18.2777 7.20413 18.6027C8.17913 20.2412 9.73642 19.7808 10.3593 19.4964C10.4541 18.7923 10.7385 18.3183 11.05 18.0475C8.63954 17.7766 6.12079 16.8423 6.12079 12.6985C6.12079 11.5204 6.54058 10.5454 7.23121 9.78704C7.12288 9.51621 6.74371 8.40579 7.33954 6.91621C7.33954 6.91621 8.24683 6.63183 10.3187 8.02663C11.1854 7.78288 12.1062 7.661 13.027 7.661C13.9479 7.661 14.8687 7.78288 15.7354 8.02663C17.8073 6.61829 18.7145 6.91621 18.7145 6.91621C19.3104 8.40579 18.9312 9.51621 18.8229 9.78704C19.5135 10.5454 19.9333 11.5068 19.9333 12.6985C19.9333 16.8558 17.401 17.7766 14.9906 18.0475C15.3833 18.386 15.7218 19.036 15.7218 20.0516C15.7218 21.5006 15.7083 22.6652 15.7083 23.0308C15.7083 23.3152 15.9114 23.6537 16.4531 23.5454C18.6037 22.8194 20.4725 21.4372 21.7964 19.5934C23.1203 17.7496 23.8327 15.5371 23.8333 13.2673C23.8333 7.28183 18.9854 2.43392 13 2.43392Z" fill="black"/>
</svg>
